<svg width="45" height="33" viewBox="0 0 45 33" fill="none" xmlns="http://www.w3.org/2000/svg">
<path d="M38.0757 2.7425C35.2256 1.46409 32.1398 0.536205 28.9254 9.48464e-05C28.8973 -0.000772421 28.8692 0.00431667 28.8433 0.0150044C28.8174 0.0256921 28.7942 0.0417189 28.7754 0.0619541C28.3897 0.742401 27.9397 1.62904 27.6397 2.30949C24.2303 1.81462 20.7631 1.81462 17.3537 2.30949C17.0537 1.60842 16.6037 0.742401 16.1965 0.0619541C16.1751 0.0207149 16.1108 9.48464e-05 16.0465 9.48464e-05C12.8321 0.536205 9.76776 1.46409 6.89626 2.7425C6.87483 2.7425 6.8534 2.76312 6.83197 2.78374C1.00324 11.1759 -0.603951 19.3413 0.188928 27.4242C0.188928 27.4654 0.210357 27.5066 0.253216 27.5273C4.11046 30.2491 7.81771 31.8986 11.4821 32.9915C11.5464 33.0121 11.6107 32.9915 11.6321 32.9502C12.4893 31.8161 13.2607 30.6202 13.925 29.3624C13.9679 29.2799 13.925 29.1975 13.8393 29.1768C12.6178 28.7232 11.4607 28.1871 10.3249 27.5685C10.2392 27.5273 10.2392 27.4035 10.3035 27.3417C10.5392 27.1767 10.7749 26.9912 11.0107 26.8262C11.0535 26.785 11.1178 26.785 11.1607 26.8056C18.5323 30.0429 26.4825 30.0429 33.7684 26.8056C33.8113 26.785 33.8756 26.785 33.9184 26.8262C34.1541 27.0118 34.3899 27.1767 34.6256 27.3623C34.7113 27.4242 34.7113 27.5479 34.6042 27.5891C33.4898 28.2283 32.3112 28.7438 31.0898 29.1975C31.0041 29.2181 30.9826 29.3212 31.0041 29.383C31.6898 30.6408 32.4612 31.8368 33.297 32.9708C33.3613 32.9915 33.4256 33.0121 33.4898 32.9915C37.1757 31.8986 40.8829 30.2491 44.7401 27.5273C44.783 27.5066 44.8044 27.4654 44.8044 27.4242C45.7473 18.0835 43.2401 9.97998 38.1614 2.78374C38.14 2.76312 38.1185 2.7425 38.0757 2.7425ZM15.0393 22.4961C12.8321 22.4961 10.9892 20.5372 10.9892 18.1247C10.9892 15.7122 12.7893 13.7534 15.0393 13.7534C17.3108 13.7534 19.1109 15.7329 19.0894 18.1247C19.0894 20.5372 17.2894 22.4961 15.0393 22.4961ZM29.9755 22.4961C27.7683 22.4961 25.9254 20.5372 25.9254 18.1247C25.9254 15.7122 27.7254 13.7534 29.9755 13.7534C32.247 13.7534 34.047 15.7329 34.0256 18.1247C34.0256 20.5372 32.247 22.4961 29.9755 22.4961Z" fill="#3A39FF"/>
</svg>
