<svg width="41" height="35" viewBox="0 0 41 35" fill="none" xmlns="http://www.w3.org/2000/svg">
<path fill-rule="evenodd" clip-rule="evenodd" d="M36.7264 0.239446C37.2301 0.0274293 37.7815 -0.0456937 38.3231 0.0276867C38.8647 0.101067 39.3767 0.318269 39.8058 0.656685C40.235 0.9951 40.5656 1.44236 40.7633 1.95191C40.9609 2.46145 41.0184 3.01466 40.9297 3.55395L36.3065 31.5968C35.858 34.3018 32.89 35.8531 30.4093 34.5057C28.3341 33.3784 25.252 31.6416 22.4797 29.8295C21.0936 28.9224 16.8475 26.0176 17.3693 23.9506C17.8178 22.1833 24.9523 15.542 29.0292 11.5936C30.6294 10.0423 29.8996 9.14744 28.01 10.5743C23.3175 14.1172 15.7834 19.5048 13.2925 21.0214C11.095 22.3586 9.94941 22.5869 8.57957 22.3586C6.08044 21.9427 3.76274 21.2986 1.87106 20.5138C-0.685145 19.4538 -0.5608 15.9395 1.86902 14.9162L36.7264 0.239446Z" fill="#3A39FF"/>
</svg>
