<svg width="622" height="229" viewBox="0 0 622 229" fill="none" xmlns="http://www.w3.org/2000/svg">
<path d="M5.2963 225.447C43.573 233.498 84.2836 225.428 117.422 204.914C133.663 194.86 148.229 181.66 159.335 166.09C171.685 148.775 181.652 124.251 166.333 105.391C159.896 97.4651 150.256 92.2652 139.833 93.9472C129.233 95.6577 120.22 103.32 115.805 113.01C110.717 124.181 111.346 136.505 113.626 148.269C115.454 157.69 118.672 166.697 123.097 175.21C131.701 191.765 146.885 206.538 166.074 209.047C187.067 211.79 207.276 200.994 220.383 185.017C234.697 167.572 240.258 145.006 243.776 123.19C247.218 101.848 248.875 79.4284 257.891 59.4935C265.839 41.9181 280.023 27.6211 297.893 20.395C316.211 12.9884 337.177 13.1775 355.304 21.2004C364.332 25.196 372.819 30.8352 379.272 38.3871C385.272 45.409 389.174 53.9422 389.094 62.806C389.068 65.7696 388.066 70.6617 386.814 73.4674C386.17 74.9116 384.773 77.4328 384.329 78.0546C383.335 79.4464 381.279 81.6256 380.596 82.1777C379.732 82.8755 378.795 83.5037 377.843 84.0756C377.364 84.3627 376.868 84.6515 376.366 84.8947C376.521 84.8192 377.198 84.5207 376.405 84.8357C375.466 85.2088 374.522 85.502 373.548 85.7735C373.189 85.8737 372.817 85.9625 372.449 86.03C373.854 85.773 371.503 86.083 371.444 86.0878C370.563 86.1578 369.684 86.1676 368.8 86.1555C368.62 86.1531 367.067 86.0317 367.915 86.1196C368.678 86.1984 367.442 86.0349 367.413 86.0283C366.424 85.8191 365.433 85.6669 364.454 85.4011C363.971 85.27 363.483 85.129 363.01 84.9653C363.972 85.2989 362.736 84.8411 362.387 84.6795C361.597 84.3127 360.817 83.9313 360.062 83.4937C359.64 83.2494 359.204 82.9918 358.802 82.7126C359.718 83.3499 358.726 82.6161 358.593 82.5043C357.846 81.8751 357.118 81.231 356.451 80.5168C357.166 81.2818 355.722 79.5294 355.457 79.1175C353.971 76.8045 353.272 73.0635 353.971 69.7765C355.686 61.712 362.991 54.8372 370.142 50.2172C387.731 38.8537 409.252 33.9928 430.038 35.0485C439.82 35.5453 450.063 37.5089 459.149 41.2245C467.895 44.801 476.25 50.2893 478.975 59.5833C479.992 63.0519 479.992 66.8702 478.265 70.233C476.951 72.7954 474.258 74.7875 470.782 75.6106C471.777 75.375 469.64 75.712 469.27 75.7276C469.092 75.736 467.521 75.6286 468.335 75.725C469.069 75.8122 467.813 75.5896 467.804 75.5861C466.658 75.1861 465.327 74.5306 464.717 73.8888C463.919 73.0488 463.339 71.7809 462.985 70.6584C462.836 70.184 462.703 69.6977 462.595 69.2123C462.677 69.5779 462.685 70.4425 462.581 68.9477C462.509 67.919 462.431 66.9035 462.459 65.869C462.502 64.2892 462.516 65.2106 462.475 65.5429C462.539 65.0263 462.629 64.5064 462.731 63.997C462.909 63.1025 463.129 62.2061 463.427 61.3429C463.451 61.2727 463.761 60.5472 464.275 59.5786C464.84 58.5146 465.167 58.0525 465.751 57.344C468.704 53.7577 472.414 51.2776 476.562 49.1141C486.189 44.093 497.374 41.0682 507.764 37.891C530.907 30.8146 554.602 25.6 578.597 22.4304C590.439 20.8661 602.338 19.7885 614.266 19.1571C623.902 18.6468 623.21 3.66272 613.554 4.17406C587.851 5.53368 562.291 9.07503 537.165 14.657C524.742 17.4174 512.435 20.7007 500.289 24.5011C489.075 28.0098 477.445 31.5022 467.116 37.2154C457.953 42.2835 449.962 50.4754 448.024 61.0874C446.17 71.234 449.289 82.118 458.369 87.7661C467.695 93.5685 479.919 90.2381 487.313 82.9055C495.409 74.8758 496.389 61.9726 492.124 51.8048C482.755 29.4747 455.402 22.1739 433.434 20.3516C410.673 18.4628 387.614 23.4129 367.569 34.3415C349.814 44.021 329.627 65.7566 342.69 86.9859C347.511 94.8197 356.59 99.8791 365.622 100.855C375.999 101.976 385.721 98.5456 393.005 91.0021C408.431 75.0251 406.347 49.8728 393.938 32.8951C380.817 14.9422 359.128 3.55976 337.254 0.813869C315.138 -1.96157 292.692 3.31579 274.476 16.3088C255.715 29.6913 244.105 49.0687 237.966 71.0332C231.763 93.2259 230.846 116.446 225.449 138.807C220.552 159.095 211.273 178.538 192.578 189.149C184.842 193.54 175.634 195.651 167.118 194.047C158.602 192.443 152.014 188.272 145.836 181.81C140.244 175.961 135.517 167.674 132.537 159.935C128.874 150.424 126.247 139.838 126.892 129.581C127.183 124.956 128.457 120.341 131.003 116.443C131.898 115.071 133.48 113.24 135.053 111.936C135.893 111.24 138.238 109.86 139.215 109.5C142.935 108.133 145.962 108.31 149.254 110.055C152.522 111.787 154.881 114.515 156.852 118.168C157.037 118.512 157.436 119.374 157.788 120.327C158.186 121.402 158.519 122.496 158.788 123.61C159.115 124.964 158.694 122.777 158.912 124.147C158.979 124.566 159.028 124.99 159.069 125.413C159.228 127.047 159.281 128.73 159.161 130.368C158.807 135.186 157.204 139.941 155.134 144.277C150.779 153.404 144.522 161.567 137.695 168.977C111.741 197.148 73.846 213.35 35.7593 213.589C26.2834 213.648 17.9709 212.782 8.59358 210.809C-0.860547 208.821 -4.15688 223.458 5.29725 225.446L5.2963 225.447Z" fill="white"/>
</svg>
