<svg width="834" height="556" viewBox="0 0 834 556" fill="none" xmlns="http://www.w3.org/2000/svg">
<path d="M140.413 487.52L135.899 494.723L135.9 494.723L140.413 487.52ZM258.932 495.281L264.23 501.928L264.23 501.927L258.932 495.281ZM292.467 418.928L300.92 419.828L300.92 419.828L292.467 418.928ZM270.636 242.127L278.771 239.66L278.771 239.66L270.636 242.127ZM248.019 167.059L256.069 164.33L256.069 164.33L248.019 167.059ZM211.465 88.6901L215.843 81.4042L215.843 81.4039L211.465 88.6901ZM185.408 157.482L193.818 156.251L193.818 156.251L185.408 157.482ZM213.425 251.566L221.285 248.331L221.285 248.331L213.425 251.566ZM311.438 398.847L305.047 404.45L305.047 404.451L311.438 398.847ZM475.118 531.781L471.604 539.52L471.604 539.52L475.118 531.781ZM542.289 545.942L541.29 537.501L541.29 537.501L542.289 545.942ZM613.156 498.114L620.286 502.741L620.287 502.74L613.156 498.114ZM640.723 414.958L632.304 413.787L632.304 413.788L640.723 414.958ZM632.833 231.391L624.467 232.895L624.467 232.895L632.833 231.391ZM578.726 39.0291L586.65 35.9514L586.649 35.9507L578.726 39.0291ZM543.73 9.35798L546.205 17.4896L546.205 17.4896L543.73 9.35798ZM527.354 25.1877L534.664 29.5262L534.664 29.5253L527.354 25.1877ZM494.633 191.362L486.135 191.544L486.135 191.544L494.633 191.362ZM603.21 449.37L607.784 442.205L607.784 442.205L603.21 449.37ZM670.426 474.913L671.766 466.519L671.765 466.519L670.426 474.913ZM707.677 475.722L708.909 484.132L708.91 484.132L707.677 475.722ZM821.549 305.735L813.095 304.855L813.095 304.855L821.549 305.735ZM822 100.168C821.153 95.5501 816.724 92.4929 812.107 93.3391C807.489 94.1852 804.432 98.6145 805.278 103.232L822 100.168ZM2.17948 180.714C-3.64364 239.889 2.38925 300.986 24.3524 356.745L40.1695 350.514C19.3592 297.682 13.4906 239.36 19.0978 182.379L2.17948 180.714ZM24.3524 356.745C46.3142 412.5 84.7216 462.651 135.899 494.723L144.927 480.318C97.2223 450.423 60.9812 403.349 40.1695 350.514L24.3524 356.745ZM135.9 494.723C154.652 506.474 177.212 515.541 199.734 518.143C222.305 520.751 245.452 516.896 264.23 501.928L253.633 488.635C239.356 500.016 221.153 503.504 201.684 501.255C182.166 499 161.994 491.013 144.926 480.318L135.9 494.723ZM264.23 501.927C289.378 481.878 297.848 448.677 300.92 419.828L284.015 418.028C281.04 445.972 273.143 473.08 253.633 488.635L264.23 501.927ZM300.92 419.828C307.453 358.459 296.259 297.334 278.771 239.66L262.502 244.593C279.65 301.144 290.213 359.81 284.015 418.028L300.92 419.828ZM278.771 239.66C271.712 216.383 264.429 188.996 256.069 164.33L239.969 169.787C248.236 194.179 255.175 220.433 262.502 244.593L278.771 239.66ZM256.069 164.33C253.153 155.728 248.15 137.761 242.039 121.815C238.916 113.665 235.313 105.484 231.198 98.5239C227.19 91.7442 222.172 85.2069 215.843 81.4042L207.088 95.9761C209.772 97.5887 213.029 101.195 216.564 107.175C219.993 112.975 223.203 120.17 226.165 127.898C232.224 143.709 236.485 159.511 239.969 169.788L256.069 164.33ZM215.843 81.4039C211.496 78.7924 206.682 77.3853 201.699 78.1554C196.719 78.9249 192.855 81.6702 190.019 84.8739C184.669 90.9174 181.59 100.129 179.686 108.812C175.788 126.582 175.517 148.603 176.997 158.714L193.818 156.251C192.654 148.303 192.803 128.353 196.291 112.454C198.079 104.303 200.435 98.7551 202.748 96.1421C203.743 95.0176 204.268 94.9602 204.295 94.956C204.319 94.9523 205.131 94.8004 207.088 95.9764L215.843 81.4039ZM176.997 158.714C181.872 192.015 193.069 224.446 205.564 254.802L221.285 248.331C209.003 218.494 198.399 187.544 193.818 156.251L176.997 158.714ZM205.564 254.801C228.647 310.888 265.786 359.673 305.047 404.45L317.829 393.243C278.973 348.927 243.298 301.818 221.285 248.331L205.564 254.801ZM305.047 404.451C351.973 457.97 405.429 509.471 471.604 539.52L478.633 524.041C415.819 495.518 364.301 446.244 317.829 393.243L305.047 404.451ZM471.604 539.52C493.148 549.303 517.941 557.385 543.289 554.383L541.29 537.501C520.612 539.95 499.292 533.422 478.633 524.041L471.604 539.52ZM543.289 554.383C575.661 550.548 603.273 528.955 620.286 502.741L606.026 493.486C590.986 516.66 567.38 534.41 541.29 537.501L543.289 554.383ZM620.287 502.74C637.29 476.535 645.016 445.816 649.142 416.128L632.304 413.788C628.325 442.421 621.069 470.303 606.026 493.487L620.287 502.74ZM649.142 416.129C657.787 353.973 652.164 290.871 641.198 229.887L624.467 232.895C635.27 292.976 640.604 354.109 632.304 413.787L649.142 416.129ZM641.198 229.887C629.297 163.689 611.004 98.6461 586.65 35.9514L570.803 42.1069C594.761 103.783 612.759 167.772 624.467 232.895L641.198 229.887ZM586.649 35.9507C583.356 27.4744 578.128 17.6652 571.059 10.4758C563.944 3.23926 553.592 -2.52895 541.255 1.22636L546.205 17.4896C550.046 16.3204 554.13 17.5055 558.937 22.3946C563.79 27.3307 567.972 34.8194 570.803 42.1076L586.649 35.9507ZM541.255 1.22634C530.381 4.53627 523.98 14.2171 520.044 20.85L534.664 29.5253C538.665 22.7821 542.203 18.7078 546.205 17.4896L541.255 1.22634ZM520.045 20.8491C489.564 72.2007 484.904 134.027 486.135 191.544L503.131 191.18C501.914 134.3 506.739 76.5716 534.664 29.5262L520.045 20.8491ZM486.135 191.544C487.184 240.551 492.169 290.73 509.036 337.771L525.038 332.033C509.073 287.506 504.164 239.437 503.131 191.18L486.135 191.544ZM509.036 337.771C525.91 384.83 555.661 429.102 598.637 456.534L607.784 442.205C568.769 417.3 540.998 376.541 525.038 332.033L509.036 337.771ZM598.636 456.534C619.964 470.149 644.1 479.323 669.088 483.307L671.765 466.519C649.081 462.902 627.146 454.566 607.784 442.205L598.636 456.534ZM669.087 483.307C681.971 485.363 695.478 486.1 708.909 484.132L706.445 467.311C695.2 468.959 683.505 468.392 671.766 466.519L669.087 483.307ZM708.91 484.132C748.664 478.304 781.364 449.418 800.247 415.73L785.418 407.418C768.299 437.959 739.528 462.462 706.444 467.312L708.91 484.132ZM800.247 415.73C819.117 382.067 826.159 343.546 830.003 306.616L813.095 304.855C809.316 341.157 802.551 376.853 785.418 407.418L800.247 415.73ZM830.003 306.616C837.159 237.884 834.456 168.139 822 100.168L805.278 103.232C817.442 169.612 820.083 237.732 813.095 304.855L830.003 306.616Z" fill="#FFFCF5"/>
</svg>
