<svg width="203" height="207" viewBox="0 0 203 207" fill="none" xmlns="http://www.w3.org/2000/svg">
<path d="M170.584 103.186C188.606 97.323 203.384 90.2108 202.514 85.2687C201.645 80.324 185.336 78.7152 166.404 79.3921C181.341 67.695 192.804 55.9389 190.305 51.5932C187.805 47.2447 171.93 51.3326 154.369 58.469C164.419 42.3483 171.186 27.3665 167.354 24.1407C163.523 20.915 149.999 30.2055 135.93 42.9393C139.882 24.3422 141.134 7.93951 136.435 6.22323C131.737 4.50696 122.192 17.8799 113.311 34.6775C110.689 15.844 106.276 0 101.275 0C96.2744 0 91.862 15.844 89.2397 34.6775C80.3587 17.8799 70.8141 4.50696 66.1154 6.22323C61.4167 7.93951 62.669 24.3422 66.6212 42.9393C52.5518 30.2055 39.0283 20.915 35.1965 24.1407C31.3648 27.3665 38.1319 42.351 48.1822 58.469C30.6236 51.3326 14.7481 47.2447 12.2462 51.5932C9.74433 55.9416 21.2101 67.6977 36.1464 79.3921C17.2151 78.7152 0.903477 80.324 0.0365179 85.2687C-0.830442 90.2134 13.9453 97.3257 31.9668 103.186C13.9453 109.05 -0.833117 116.162 0.0365179 121.104C0.906153 126.049 17.2151 127.657 36.1464 126.98C21.2101 138.678 9.74701 150.434 12.2462 154.779C14.7454 159.128 30.6209 155.04 48.1822 147.904C38.1319 164.022 31.3648 179.006 35.1965 182.232C39.0283 185.458 52.5518 176.167 66.6212 163.433C62.669 182.03 61.4167 198.433 66.1154 200.149C70.8141 201.866 80.3587 188.493 89.2397 171.695C91.862 190.529 96.2744 206.373 101.275 206.373C106.276 206.373 110.689 190.529 113.311 171.695C122.192 188.493 131.737 201.866 136.435 200.149C141.134 198.433 139.882 182.03 135.93 163.433C149.999 176.167 163.523 185.458 167.354 182.232C171.186 179.006 164.419 164.022 154.369 147.904C171.927 155.04 187.803 159.128 190.305 154.779C192.807 150.431 181.341 138.675 166.404 126.98C185.336 127.657 201.647 126.049 202.514 121.104C203.384 116.159 188.606 109.047 170.584 103.186Z" fill="#FF5B23"/>
<path d="M65.3212 97.2366H56.4038C54.5609 97.2366 52.9855 96.5826 51.6777 95.2748C50.3698 93.9669 49.7158 92.3915 49.7158 90.5486V72.7139C49.7158 70.871 50.3698 69.2956 51.6777 67.9877C52.9855 66.6798 54.5609 66.0259 56.4038 66.0259H65.3212C67.1641 66.0259 68.7395 66.6798 70.0474 67.9877C71.3552 69.2956 72.0092 70.871 72.0092 72.7139V74.9432H67.5505V72.7139C67.5505 72.0897 67.3276 71.5695 66.8817 71.1534C66.4656 70.7075 65.9454 70.4846 65.3212 70.4846H56.4038C55.7796 70.4846 55.2446 70.7075 54.7987 71.1534C54.3826 71.5695 54.1745 72.0897 54.1745 72.7139V90.5486C54.1745 91.1728 54.3826 91.7078 54.7987 92.1537C55.2446 92.5698 55.7796 92.7779 56.4038 92.7779H65.3212C65.9454 92.7779 66.4656 92.5698 66.8817 92.1537C67.3276 91.7078 67.5505 91.1728 67.5505 90.5486V86.3574L60.7733 84.7969L61.7988 80.4274L70.2703 82.4338C70.7756 82.5527 71.1917 82.8202 71.5187 83.2364C71.8457 83.6228 72.0092 84.0835 72.0092 84.6185V90.5486C72.0092 92.3915 71.3552 93.9669 70.0474 95.2748C68.7395 96.5826 67.1641 97.2366 65.3212 97.2366ZM92.0558 97.2366H83.1384C81.2955 97.2366 79.7201 96.5826 78.4122 95.2748C77.1044 93.9669 76.4504 92.3915 76.4504 90.5486V72.7139C76.4504 70.871 77.1044 69.2956 78.4122 67.9877C79.7201 66.6798 81.2955 66.0259 83.1384 66.0259H92.0558C93.8987 66.0259 95.4741 66.6798 96.7819 67.9877C98.0898 69.2956 98.7438 70.871 98.7438 72.7139V90.5486C98.7438 92.3915 98.0898 93.9669 96.7819 95.2748C95.4741 96.5826 93.8987 97.2366 92.0558 97.2366ZM92.0558 70.4846H83.1384C82.5142 70.4846 81.9792 70.7075 81.5333 71.1534C81.1172 71.5695 80.9091 72.0897 80.9091 72.7139V90.5486C80.9091 91.1728 81.1172 91.7078 81.5333 92.1537C81.9792 92.5698 82.5142 92.7779 83.1384 92.7779H92.0558C92.68 92.7779 93.2001 92.5698 93.6163 92.1537C94.0622 91.7078 94.2851 91.1728 94.2851 90.5486V72.7139C94.2851 72.0897 94.0622 71.5695 93.6163 71.1534C93.2001 70.7075 92.68 70.4846 92.0558 70.4846ZM118.79 97.2366H109.873C108.03 97.2366 106.455 96.5826 105.147 95.2748C103.839 93.9669 103.185 92.3915 103.185 90.5486V72.7139C103.185 70.871 103.839 69.2956 105.147 67.9877C106.455 66.6798 108.03 66.0259 109.873 66.0259H118.79C120.633 66.0259 122.209 66.6798 123.517 67.9877C124.824 69.2956 125.478 70.871 125.478 72.7139V90.5486C125.478 92.3915 124.824 93.9669 123.517 95.2748C122.209 96.5826 120.633 97.2366 118.79 97.2366ZM118.79 70.4846H109.873C109.249 70.4846 108.714 70.7075 108.268 71.1534C107.852 71.5695 107.644 72.0897 107.644 72.7139V90.5486C107.644 91.1728 107.852 91.7078 108.268 92.1537C108.714 92.5698 109.249 92.7779 109.873 92.7779H118.79C119.415 92.7779 119.935 92.5698 120.351 92.1537C120.797 91.7078 121.02 91.1728 121.02 90.5486V72.7139C121.02 72.0897 120.797 71.5695 120.351 71.1534C119.935 70.7075 119.415 70.4846 118.79 70.4846ZM129.92 66.0259H145.525C147.368 66.0259 148.943 66.6798 150.251 67.9877C151.559 69.2956 152.213 70.871 152.213 72.7139V90.5486C152.213 92.3915 151.559 93.9669 150.251 95.2748C148.943 96.5826 147.368 97.2366 145.525 97.2366H129.92V66.0259ZM147.754 90.5486V72.7139C147.754 72.0897 147.531 71.5695 147.085 71.1534C146.669 70.7075 146.149 70.4846 145.525 70.4846H134.378V92.7779H145.525C146.149 92.7779 146.669 92.5698 147.085 92.1537C147.531 91.7078 147.754 91.1728 147.754 90.5486ZM76.4548 135.549V111.026H80.9134V135.549C80.9134 137.273 80.2298 138.818 78.8625 140.186C77.5249 141.553 75.9792 142.237 74.2254 142.237H65.3081C63.5544 142.237 61.9938 141.553 60.6265 140.186C59.2889 138.818 58.6201 137.273 58.6201 135.549V131.09H63.0788V135.549C63.0788 136.054 63.3166 136.559 63.7922 137.065C64.2975 137.54 64.8028 137.778 65.3081 137.778H74.2254C74.7308 137.778 75.2212 137.54 75.6968 137.065C76.2021 136.559 76.4548 136.054 76.4548 135.549ZM100.96 142.237H92.0427C90.1998 142.237 88.6244 141.583 87.3165 140.275C86.0086 138.967 85.3547 137.391 85.3547 135.549V117.714C85.3547 115.871 86.0086 114.296 87.3165 112.988C88.6244 111.68 90.1998 111.026 92.0427 111.026H100.96C102.803 111.026 104.378 111.68 105.686 112.988C106.994 114.296 107.648 115.871 107.648 117.714V135.549C107.648 137.391 106.994 138.967 105.686 140.275C104.378 141.583 102.803 142.237 100.96 142.237ZM100.96 115.485H92.0427C91.4185 115.485 90.8834 115.708 90.4376 116.153C90.0214 116.57 89.8134 117.09 89.8134 117.714V135.549C89.8134 136.173 90.0214 136.708 90.4376 137.154C90.8834 137.57 91.4185 137.778 92.0427 137.778H100.96C101.584 137.778 102.104 137.57 102.521 137.154C102.966 136.708 103.189 136.173 103.189 135.549V117.714C103.189 117.09 102.966 116.57 102.521 116.153C102.104 115.708 101.584 115.485 100.96 115.485ZM134.383 117.714V122.173C134.383 123.837 133.818 125.323 132.688 126.631C133.818 127.939 134.383 129.425 134.383 131.09V135.549C134.383 137.391 133.729 138.967 132.421 140.275C131.113 141.583 129.538 142.237 127.695 142.237H112.089V111.026H127.695C129.538 111.026 131.113 111.68 132.421 112.988C133.729 114.296 134.383 115.871 134.383 117.714ZM127.695 115.485H116.548V124.402H127.695C128.319 124.402 128.839 124.194 129.255 123.778C129.701 123.332 129.924 122.797 129.924 122.173V117.714C129.924 117.09 129.701 116.57 129.255 116.153C128.839 115.708 128.319 115.485 127.695 115.485ZM129.924 135.549V131.09C129.924 130.466 129.701 129.946 129.255 129.529C128.839 129.084 128.319 128.861 127.695 128.861H116.548V137.778H127.695C128.319 137.778 128.839 137.57 129.255 137.154C129.701 136.708 129.924 136.173 129.924 135.549ZM143.283 133.319H138.824V111.026H143.283V133.319ZM143.283 142.237H138.824V137.778H143.283V142.237Z" fill="white"/>
</svg>
