<svg width="822" height="305" viewBox="0 0 822 305" fill="none" xmlns="http://www.w3.org/2000/svg">
<path d="M814.033 0.668082C787.552 -0.782918 760.217 -0.723913 735.407 9.84109C714.619 18.6931 696.351 35.0581 690.192 57.3961C684.322 78.6841 689.983 103.347 708.965 116.123C725.311 127.125 750.748 127.417 764.568 111.995C776.884 98.2511 776.319 76.1351 764.795 62.1071C749.845 43.9091 723.659 50.8651 709.74 66.4721C692.551 85.7451 693.35 112.251 685.824 135.589C679.544 155.061 667.569 172.399 652.411 186.033C637.371 199.561 618.9 209.203 599.12 213.504C590.139 215.457 580.373 216.615 571.505 213.536C564.088 210.961 560.09 204.288 562.786 196.997C565.407 189.91 572.238 185.205 579.866 186.242C589.403 187.539 597.045 195.561 599.441 204.594C605.753 228.394 585.156 248.612 567.677 261.03C548.138 274.911 525.429 286.531 501.269 289.028C477.192 291.516 454.619 284.135 433.9 272.31C391.275 247.983 355.33 207.643 304.746 199.826C280.137 196.023 257.01 201.969 235.858 214.708C215.973 226.683 198.788 242.552 179.112 254.846C138.869 279.993 90.9773 291.909 43.6453 289.196C32.0943 288.534 20.6763 286.936 9.37334 284.472C-0.0366564 282.421 -4.05666 296.878 5.38534 298.936C52.5333 309.212 102.587 305.223 147.469 287.432C170.032 278.488 190.338 266.243 209.675 251.665C227.687 238.086 245.996 222.833 268.049 216.453C317.739 202.078 362.312 241.38 399.731 267.975C419.334 281.907 440.345 295.087 463.888 301.099C488.131 307.29 513.362 304.545 536.456 295.292C548.281 290.554 559.519 284.587 570.115 277.518C580.276 270.74 590.323 263.217 598.371 253.961C614.207 235.748 623.008 207.19 606.768 186.288C599.984 177.556 589.676 171.6 578.511 171.149C567.65 170.711 557.872 176.505 551.947 185.404C546.276 193.92 545.093 205.342 550.114 214.417C555.212 223.631 565.275 228.341 575.321 229.739C596.174 232.643 618.732 225.109 636.868 215.243C655.559 205.074 671.651 190.39 683.787 172.944C689.912 164.138 694.812 154.556 698.568 144.514C702.829 133.123 704.69 121.165 707.155 109.309C709.511 97.9821 712.447 85.9381 720.348 77.0791C726.477 70.2071 735.797 64.0511 745.412 66.6081C758.505 70.0901 762.328 89.3021 754.978 100.075C745.378 114.145 722.177 110.213 711.678 98.9191C697.713 83.8961 701.681 58.7581 713.571 43.8751C727.968 25.8521 751.366 17.8211 773.641 15.7471C787.074 14.4961 800.586 14.9311 814.035 15.6681C823.681 16.1971 823.651 1.19508 814.035 0.668082H814.033Z" fill="white"/>
</svg>
