<svg width="203" height="207" viewBox="0 0 203 207" fill="none" xmlns="http://www.w3.org/2000/svg">
<path d="M170.584 103.186C188.606 97.323 203.384 90.2108 202.514 85.2687C201.645 80.324 185.336 78.7152 166.404 79.3921C181.341 67.695 192.804 55.9389 190.305 51.5932C187.805 47.2447 171.93 51.3326 154.369 58.469C164.419 42.3483 171.186 27.3665 167.354 24.1407C163.523 20.915 149.999 30.2055 135.93 42.9393C139.882 24.3422 141.134 7.93951 136.435 6.22323C131.737 4.50696 122.192 17.8799 113.311 34.6775C110.689 15.844 106.276 0 101.275 0C96.2744 0 91.862 15.844 89.2397 34.6775C80.3587 17.8799 70.8141 4.50696 66.1154 6.22323C61.4167 7.93951 62.669 24.3422 66.6212 42.9393C52.5518 30.2055 39.0283 20.915 35.1965 24.1407C31.3648 27.3665 38.1319 42.351 48.1822 58.469C30.6236 51.3326 14.7481 47.2447 12.2462 51.5932C9.74433 55.9416 21.2101 67.6977 36.1464 79.3921C17.2151 78.7152 0.903477 80.324 0.0365179 85.2687C-0.830442 90.2134 13.9453 97.3257 31.9668 103.186C13.9453 109.05 -0.833117 116.162 0.0365179 121.104C0.906153 126.049 17.2151 127.657 36.1464 126.98C21.2101 138.678 9.74701 150.434 12.2462 154.779C14.7454 159.128 30.6209 155.04 48.1822 147.904C38.1319 164.022 31.3648 179.006 35.1965 182.232C39.0283 185.458 52.5518 176.167 66.6212 163.433C62.669 182.03 61.4167 198.433 66.1154 200.149C70.8141 201.866 80.3587 188.493 89.2397 171.695C91.862 190.529 96.2744 206.373 101.275 206.373C106.276 206.373 110.689 190.529 113.311 171.695C122.192 188.493 131.737 201.866 136.435 200.149C141.134 198.433 139.882 182.03 135.93 163.433C149.999 176.167 163.523 185.458 167.354 182.232C171.186 179.006 164.419 164.022 154.369 147.904C171.927 155.04 187.803 159.128 190.305 154.779C192.807 150.431 181.341 138.675 166.404 126.98C185.336 127.657 201.647 126.049 202.514 121.104C203.384 116.159 188.606 109.047 170.584 103.186Z" fill="#FF5B23"/>
</svg>
