<svg width="55" height="41" viewBox="0 0 55 41" fill="none" xmlns="http://www.w3.org/2000/svg">
<path d="M46.5369 3.40735C43.0535 1.81902 39.282 0.666193 35.3533 0.00011784C35.3189 -0.000959674 35.2846 0.00536313 35.2529 0.0186418C35.2212 0.0319205 35.1929 0.0518326 35.17 0.0769733C34.6985 0.922377 34.1485 2.02396 33.7818 2.86937C29.6148 2.25453 25.3771 2.25453 21.2101 2.86937C20.8434 1.99834 20.2934 0.922377 19.7957 0.0769733C19.7695 0.0257367 19.691 0.00011784 19.6124 0.00011784C15.6837 0.666193 11.9384 1.81902 8.42876 3.40735C8.40257 3.40735 8.37637 3.43297 8.35018 3.45859C1.22618 13.8852 -0.738162 24.0301 0.230912 34.0724C0.230912 34.1237 0.257103 34.1749 0.309486 34.2005C5.0239 37.5822 9.55498 39.6316 14.0337 40.9894C14.1122 41.015 14.1908 40.9894 14.217 40.9382C15.2647 39.5291 16.2075 38.0433 17.0195 36.4806C17.0719 36.3781 17.0195 36.2756 16.9147 36.25C15.4218 35.6864 14.0075 35.0203 12.6193 34.2518C12.5146 34.2005 12.5146 34.0468 12.5932 33.97C12.8813 33.765 13.1694 33.5345 13.4575 33.3295C13.5098 33.2783 13.5884 33.2783 13.6408 33.3039C22.6506 37.326 32.3675 37.326 41.2725 33.3039C41.3249 33.2783 41.4035 33.2783 41.4559 33.3295C41.744 33.5601 42.0321 33.765 42.3202 33.9956C42.4249 34.0725 42.4249 34.2262 42.294 34.2774C40.932 35.0716 39.4915 35.712 37.9986 36.2756C37.8939 36.3012 37.8677 36.4293 37.8939 36.5062C38.732 38.0689 39.6749 39.5548 40.6963 40.9638C40.7749 40.9894 40.8535 41.015 40.932 40.9894C45.4369 39.6316 49.968 37.5822 54.6824 34.2005C54.7348 34.1749 54.761 34.1237 54.761 34.0724C55.9134 22.4674 52.849 12.3994 46.6417 3.45859C46.6155 3.43297 46.5893 3.40735 46.5369 3.40735ZM18.3814 27.9497C15.6837 27.9497 13.4313 25.5159 13.4313 22.5186C13.4313 19.5213 15.6313 17.0875 18.3814 17.0875C21.1577 17.0875 23.3577 19.5469 23.3315 22.5186C23.3315 25.5159 21.1315 27.9497 18.3814 27.9497ZM36.6367 27.9497C33.939 27.9497 31.6865 25.5159 31.6865 22.5186C31.6865 19.5213 33.8866 17.0875 36.6367 17.0875C39.4129 17.0875 41.613 19.5469 41.5868 22.5186C41.5868 25.5159 39.4129 27.9497 36.6367 27.9497Z" fill="#3A39FF"/>
</svg>
