<svg width="206" height="41" viewBox="0 0 206 41" fill="none" xmlns="http://www.w3.org/2000/svg">
<path d="M53.1414 33.667V40.3729H0V33.667L18.5842 7.38967H7.69446V14.6086H1.04276V0.685547H31.3138V6.64708L12.1713 33.667H53.1414Z" fill="#212121"/>
<path d="M36.3867 40.3724V34.0098H40.7835V7.04745H36.3867V0.685059H49.4642V25.7501L58.8311 18.0323H53.0718V12.7539H69.5597V18.346H66.8258L58.847 25.2395L66.1194 34.0098H69.8979V40.3724H61.5271L49.4642 25.7499V34.3237H52.7617V40.3724H36.3867Z" fill="#212121"/>
<path d="M73.252 40.3724V33.6674H78.4943V7.38987H73.252V0.685059H89.7194L104.142 25.4327V7.38987H99.0405V0.685059H116.627V7.39005H111.132V40.658H102.395L85.4839 11.2419V33.6678H90.4162V40.3728H73.252V40.3724Z" fill="#212121"/>
<path d="M133.961 41.0002C129.94 41.0002 126.544 39.7119 123.772 37.1342C121.001 34.5571 119.615 31.024 119.615 26.5348C119.615 22.0455 121.001 18.5129 123.772 15.9353C126.544 13.3582 129.94 12.0693 133.961 12.0693C137.982 12.0693 141.402 13.3582 144.164 15.9353C146.926 18.5129 148.307 22.046 148.307 26.5348C148.307 30.967 146.94 34.4858 144.206 37.0914C141.472 39.6976 138.057 41.0004 133.961 41.0004V41.0002ZM133.933 34.1526C135.549 34.1526 136.859 33.525 137.865 32.2695C138.87 31.0141 139.372 29.0455 139.372 26.3635C139.372 24.0051 138.884 22.1648 137.907 20.8426C136.93 19.5207 135.605 18.8597 133.933 18.8597C130.344 18.8597 128.55 21.4847 128.55 26.7344C128.55 28.8841 128.996 30.6576 129.888 32.0556C130.781 33.4537 132.129 34.1528 133.933 34.1528V34.1526Z" fill="#212121"/>
<path d="M152.928 19.116V12.7534H165.78V34.0094H169.838V40.372H152.928V34.0094H157.071V19.116H152.928Z" fill="#212121"/>
<path d="M155.902 4.83601C155.902 3.5084 156.367 2.3707 157.297 1.42256C158.228 0.474419 159.35 0 160.665 0C161.999 0 163.127 0.474419 164.048 1.42256C164.968 2.37088 165.429 3.50858 165.429 4.83601C165.429 6.16344 164.964 7.2968 164.034 8.23572C163.103 9.17465 161.98 9.64367 160.666 9.64367C159.369 9.64367 158.251 9.16978 157.312 8.22146C156.372 7.27332 155.903 6.14501 155.903 4.83601H155.902Z" fill="#212121"/>
<path d="M165.93 4.83601C165.93 3.5084 166.359 2.3707 167.217 1.42256C168.075 0.474419 169.111 0 170.325 0C171.556 0 172.596 0.474419 173.446 1.42256C174.295 2.37088 174.72 3.50858 174.72 4.83601C174.72 6.16344 174.291 7.2968 173.433 8.23572C172.574 9.17465 171.538 9.64367 170.325 9.64367C169.128 9.64367 168.097 9.16978 167.23 8.22146C166.363 7.27332 165.93 6.14501 165.93 4.83601Z" fill="#212121"/>
<path d="M175.221 4.83601C175.221 3.5084 175.562 2.3707 176.243 1.42256C176.925 0.474245 177.747 0 178.711 0C179.689 0 180.515 0.474419 181.19 1.42256C181.864 2.37088 182.202 3.50858 182.202 4.83601C182.202 6.16344 181.861 7.2968 181.18 8.23572C180.498 9.17465 179.675 9.64367 178.711 9.64367C177.761 9.64367 176.942 9.16978 176.254 8.22146C175.565 7.27332 175.221 6.14501 175.221 4.83601Z" fill="#212121"/>
<path d="M182.703 4.83601C182.703 3.5084 182.959 2.3707 183.472 1.42256C183.985 0.474245 184.603 0 185.328 0C186.064 0 186.685 0.474419 187.192 1.42256C187.7 2.37088 187.954 3.50858 187.954 4.83601C187.954 6.16344 187.697 7.2968 187.185 8.23572C186.672 9.17465 186.053 9.64367 185.328 9.64367C184.614 9.64367 183.998 9.16978 183.48 8.22146C182.962 7.27332 182.703 6.14501 182.703 4.83601Z" fill="#212121"/>
<path d="M201.518 34.0098V0.000488281H188.661V9.64364H192.81V15.8278C190.742 13.3218 188.12 12.0696 184.946 12.0696C181.639 12.0696 178.839 13.4522 176.547 16.2208C174.255 18.9877 173.109 22.3876 173.109 26.4205C173.109 30.396 174.226 33.782 176.463 36.5784C178.698 39.3731 181.517 40.7713 184.918 40.7713C187.754 40.7713 190.386 39.5435 192.81 37.0844V40.373H206V34.0098H201.518ZM191.245 32.1124C190.146 33.2637 188.873 33.8393 187.426 33.8393C185.679 33.8393 184.344 33.1298 183.424 31.7125C182.503 30.2969 182.042 28.5508 182.042 26.4779C182.042 24.2901 182.508 22.5267 183.439 21.1841C184.368 19.8433 185.688 19.1738 187.399 19.1738C188.826 19.1738 190.099 19.7355 191.218 20.8572C192.334 21.9789 192.894 23.8623 192.894 26.5057C192.894 29.0934 192.345 30.9612 191.245 32.1124Z" fill="#212121"/>
</svg>
