<svg width="113" height="53" viewBox="0 0 113 53" fill="none" xmlns="http://www.w3.org/2000/svg">
<g clip-path="url(#clip0_1_3)">
<path d="M9.06282 52.8507C8.59437 52.8507 8.12458 52.7411 7.70418 52.5339C6.34609 51.8648 5.68183 50.3286 6.12491 48.8814L11.2206 32.2279H7.86499C6.72074 32.2279 5.67874 31.5993 5.14581 30.5873C4.61265 29.5749 4.68432 28.3604 5.33262 27.4176L9.21431 21.7721H3.07225C1.96127 21.7721 0.933972 21.1703 0.391084 20.2016C-0.151408 19.2328 -0.128017 18.0432 0.451932 17.0969L10.0377 1.46611C10.5926 0.561679 11.5965 0 12.6577 0L24.1602 0C25.3435 0 26.4343 0.691042 26.9392 1.76054C27.4441 2.83003 27.2842 4.11087 26.5318 5.0236L23.6037 8.57571H27.6749C28.7656 8.57571 29.7836 9.16116 30.3316 10.1037C30.8796 11.0461 30.8846 12.2198 30.3446 13.167L26.0932 20.6227H27.6749C28.8306 20.6227 29.8773 21.2606 30.4064 22.2874C30.9358 23.3143 30.8477 24.5367 30.1762 25.4771L11.565 51.5625C10.9893 52.3691 10.054 52.8507 9.06282 52.8507Z" fill="white"/>
<path d="M3.07221 20.1924H12.2178L6.63503 28.3121C6.32021 28.7699 6.28536 29.3598 6.54432 29.8514C6.80312 30.343 7.30918 30.6482 7.86487 30.6482H13.3565L7.63602 49.3433C7.42084 50.0462 7.74341 50.7922 8.40309 51.1172C8.60737 51.2178 8.83543 51.2711 9.0627 51.2711C9.54418 51.2711 9.99849 51.0372 10.2781 50.6454L28.8896 24.5596C29.2157 24.1029 29.2584 23.5093 29.0014 23.0106C28.7444 22.5119 28.236 22.2022 27.6748 22.2022H23.3734L28.9713 12.3851C29.2336 11.9251 29.2312 11.355 28.965 10.8973C28.6989 10.4396 28.2045 10.1552 27.6748 10.1552H20.2538L25.3119 4.01926C25.6773 3.57597 25.7549 2.95395 25.5097 2.43453C25.2645 1.9151 24.7348 1.57953 24.1601 1.57953L12.6576 1.57953C12.1421 1.57953 11.6547 1.85239 11.3852 2.29158L1.79978 17.9218C1.51806 18.3814 1.5066 18.9591 1.77015 19.4297C2.03377 19.9002 2.53264 20.1924 3.07221 20.1924Z" fill="white"/>
<path d="M9.0627 51.2711C8.83543 51.2711 8.60737 51.2179 8.4031 51.1173C7.74341 50.7923 7.42084 50.0462 7.63602 49.3434L13.3565 30.6483H7.86487C7.30918 30.6483 6.80312 30.343 6.54432 29.8514C6.28536 29.3598 6.32021 28.7699 6.63504 28.3121L12.2179 20.1924H3.07213C2.53256 20.1924 2.03361 19.9001 1.76999 19.4297C1.50653 18.9591 1.51791 18.3814 1.79963 17.9218L11.3852 2.29158C11.6547 1.85231 12.1421 1.57953 12.6576 1.57953L24.1601 1.57953C24.7348 1.57953 25.2645 1.9151 25.5097 2.43453C25.755 2.95395 25.6773 3.57597 25.3119 4.01926L20.2539 10.1552H27.6747C28.2045 10.1552 28.6989 10.4396 28.9649 10.8973C29.2311 11.355 29.2335 11.9251 28.9713 12.3851L23.3732 22.2022H27.6747C28.2359 22.2022 28.7442 22.5119 29.0013 23.0106C29.2584 23.5093 29.2156 24.1029 28.8896 24.5596L10.278 50.6454C9.99849 51.0371 9.54419 51.2711 9.06262 51.2711L9.0627 51.2711Z" fill="#FF5B23"/>
<path d="M9.06276 50.5254C8.95134 50.5254 8.83873 50.5004 8.73308 50.4484C8.40497 50.2867 8.2425 49.9111 8.34958 49.5615L14.365 29.9025H7.86485C7.5878 29.9025 7.33358 29.7491 7.20454 29.5041C7.07549 29.259 7.09296 28.9627 7.2499 28.7345L13.6358 19.4467H3.07219C2.80217 19.4467 2.55309 19.3008 2.42112 19.0653C2.28923 18.8298 2.29492 18.5414 2.43598 18.3114L12.0215 2.68125C12.1571 2.46004 12.398 2.32523 12.6577 2.32523L24.1602 2.32523C24.4489 2.32523 24.7117 2.49171 24.8349 2.75272C24.9581 3.01374 24.9196 3.32238 24.736 3.54509L18.6724 10.901H27.6748C27.9406 10.901 28.1864 11.0424 28.3199 11.272C28.4535 11.5018 28.4547 11.7852 28.3231 12.0159L22.0893 22.948H27.6748C27.9541 22.948 28.2102 23.104 28.3381 23.3522C28.466 23.6004 28.4446 23.8992 28.2823 24.1266L9.67068 50.2125C9.52663 50.4144 9.29754 50.5254 9.06276 50.5254Z" fill="white"/>
<path d="M12.6577 3.07089L3.07227 18.701H15.054L7.86493 29.1568H15.3735L9.06315 49.7796L27.6748 23.6936H20.8052L27.6748 11.6467L17.091 11.6467L24.1602 3.07089L12.6577 3.07089Z" fill="#FF5B23"/>
</g>
<g clip-path="url(#clip1_1_3)">
<path d="M49.8123 52.8507C49.3439 52.8507 48.8741 52.7411 48.4537 52.5339C47.0956 51.8648 46.4313 50.3286 46.8744 48.8814L51.9701 32.2279H48.6145C47.4703 32.2279 46.4283 31.5993 45.8953 30.5873C45.3622 29.5749 45.4338 28.3604 46.0821 27.4176L49.9638 21.7721H43.8218C42.7108 21.7721 41.6835 21.1703 41.1406 20.2016C40.5981 19.2328 40.6215 18.0432 41.2014 17.0969L50.7872 1.46611C51.3421 0.561679 52.346 0 53.4072 0L64.9097 0C66.093 0 67.1838 0.691042 67.6887 1.76054C68.1936 2.83003 68.0337 4.11087 67.2813 5.0236L64.3532 8.57571H68.4244C69.5151 8.57571 70.5331 9.16116 71.0811 10.1037C71.6291 11.0461 71.6341 12.2198 71.0942 13.167L66.8427 20.6227H68.4244C69.5802 20.6227 70.6268 21.2606 71.156 22.2874C71.6853 23.3143 71.5972 24.5367 70.9258 25.4771L52.3145 51.5625C51.7388 52.3691 50.8035 52.8507 49.8123 52.8507Z" fill="white"/>
<path d="M43.8217 20.1924H52.9674L47.3845 28.3121C47.0697 28.7699 47.0349 29.3598 47.2938 29.8514C47.5526 30.343 48.0587 30.6482 48.6144 30.6482H54.106L48.3855 49.3433C48.1704 50.0462 48.4929 50.7922 49.1526 51.1172C49.3569 51.2178 49.5849 51.2711 49.8122 51.2711C50.2937 51.2711 50.748 51.0372 51.0276 50.6454L69.6391 24.5596C69.9652 24.1029 70.0079 23.5093 69.7509 23.0106C69.4939 22.5119 68.9855 22.2022 68.4243 22.2022H64.1229L69.7208 12.3851C69.9831 11.9251 69.9807 11.355 69.7145 10.8973C69.4484 10.4396 68.954 10.1552 68.4243 10.1552H61.0034L66.0614 4.01926C66.4268 3.57597 66.5045 2.95395 66.2593 2.43453C66.014 1.9151 65.4843 1.57953 64.9096 1.57953L53.4071 1.57953C52.8917 1.57953 52.4042 1.85239 52.1347 2.29158L42.5493 17.9218C42.2676 18.3814 42.2561 18.9591 42.5197 19.4297C42.7833 19.9002 43.2821 20.1924 43.8217 20.1924Z" fill="white"/>
<path d="M49.8122 51.2711C49.5849 51.2711 49.3569 51.2179 49.1526 51.1173C48.4929 50.7923 48.1704 50.0462 48.3855 49.3434L54.106 30.6483H48.6144C48.0587 30.6483 47.5526 30.343 47.2938 29.8514C47.0349 29.3598 47.0697 28.7699 47.3846 28.3121L52.9674 20.1924H43.8216C43.2821 20.1924 42.7831 19.9001 42.5195 19.4297C42.256 18.9591 42.2674 18.3814 42.5491 17.9218L52.1347 2.29158C52.4042 1.85231 52.8917 1.57953 53.4071 1.57953L64.9096 1.57953C65.4843 1.57953 66.014 1.9151 66.2593 2.43453C66.5045 2.95395 66.4268 3.57597 66.0614 4.01926L61.0034 10.1552H68.4242C68.954 10.1552 69.4484 10.4396 69.7145 10.8973C69.9806 11.355 69.9831 11.9251 69.7208 12.3851L64.1227 22.2022H68.4242C68.9854 22.2022 69.4937 22.5119 69.7508 23.0106C70.0079 23.5093 69.9651 24.1029 69.6391 24.5596L51.0275 50.6454C50.748 51.0371 50.2937 51.2711 49.8121 51.2711L49.8122 51.2711Z" fill="#FF5B23"/>
<path d="M49.8123 50.5254C49.7009 50.5254 49.5882 50.5004 49.4826 50.4484C49.1545 50.2867 48.992 49.9111 49.0991 49.5615L55.1145 29.9025H48.6144C48.3373 29.9025 48.0831 29.7491 47.954 29.5041C47.825 29.259 47.8425 28.9627 47.9994 28.7345L54.3853 19.4467H43.8217C43.5517 19.4467 43.3026 19.3008 43.1706 19.0653C43.0387 18.8298 43.0444 18.5414 43.1855 18.3114L52.771 2.68125C52.9067 2.46004 53.1475 2.32523 53.4072 2.32523L64.9097 2.32523C65.1984 2.32523 65.4613 2.49171 65.5845 2.75272C65.7077 3.01374 65.6691 3.32238 65.4855 3.54509L59.4219 10.901H68.4243C68.6901 10.901 68.9359 11.0424 69.0694 11.272C69.203 11.5018 69.2042 11.7852 69.0726 12.0159L62.8388 22.948H68.4243C68.7037 22.948 68.9597 23.104 69.0876 23.3522C69.2156 23.6004 69.1941 23.8992 69.0318 24.1266L50.4202 50.2125C50.2761 50.4144 50.047 50.5254 49.8123 50.5254Z" fill="white"/>
<path d="M53.4072 3.07089L43.8218 18.701H55.8035L48.6144 29.1568H56.123L49.8127 49.7796L68.4243 23.6936H61.5548L68.4243 11.6467L57.8405 11.6467L64.9097 3.07089L53.4072 3.07089Z" fill="#FF5B23"/>
</g>
<g clip-path="url(#clip2_1_3)">
<path d="M90.5618 52.8507C90.0934 52.8507 89.6236 52.7411 89.2032 52.5339C87.8451 51.8648 87.1809 50.3286 87.6239 48.8814L92.7196 32.2279H89.364C88.2198 32.2279 87.1778 31.5993 86.6448 30.5873C86.1117 29.5749 86.1833 28.3604 86.8316 27.4176L90.7133 21.7721H84.5713C83.4603 21.7721 82.433 21.1703 81.8901 20.2016C81.3476 19.2328 81.371 18.0432 81.951 17.0969L91.5368 1.46611C92.0917 0.561679 93.0955 0 94.1567 0L105.659 0C106.843 0 107.933 0.691042 108.438 1.76054C108.943 2.83003 108.783 4.11087 108.031 5.0236L105.103 8.57571H109.174C110.265 8.57571 111.283 9.16116 111.831 10.1037C112.379 11.0461 112.384 12.2198 111.844 13.167L107.592 20.6227H109.174C110.33 20.6227 111.376 21.2606 111.905 22.2874C112.435 23.3143 112.347 24.5367 111.675 25.4771L93.064 51.5625C92.4883 52.3691 91.553 52.8507 90.5618 52.8507Z" fill="white"/>
<path d="M84.5712 20.1924H93.7169L88.1341 28.3121C87.8192 28.7699 87.7844 29.3598 88.0433 29.8514C88.3021 30.343 88.8082 30.6482 89.3639 30.6482H94.8555L89.135 49.3433C88.9199 50.0462 89.2424 50.7922 89.9021 51.1172C90.1064 51.2178 90.3345 51.2711 90.5617 51.2711C91.0432 51.2711 91.4975 51.0372 91.7771 50.6454L110.389 24.5596C110.715 24.1029 110.757 23.5093 110.5 23.0106C110.243 22.5119 109.735 22.2022 109.174 22.2022H104.872L110.47 12.3851C110.733 11.9251 110.73 11.355 110.464 10.8973C110.198 10.4396 109.704 10.1552 109.174 10.1552H101.753L106.811 4.01926C107.176 3.57597 107.254 2.95395 107.009 2.43453C106.764 1.9151 106.234 1.57953 105.659 1.57953L94.1566 1.57953C93.6412 1.57953 93.1537 1.85239 92.8842 2.29158L83.2988 17.9218C83.0171 18.3814 83.0056 18.9591 83.2692 19.4297C83.5328 19.9002 84.0317 20.1924 84.5712 20.1924Z" fill="white"/>
<path d="M90.5617 51.2711C90.3345 51.2711 90.1064 51.2179 89.9021 51.1173C89.2424 50.7923 88.9199 50.0462 89.135 49.3434L94.8555 30.6483H89.3639C88.8082 30.6483 88.3021 30.343 88.0433 29.8514C87.7844 29.3598 87.8192 28.7699 88.1341 28.3121L93.7169 20.1924H84.5712C84.0316 20.1924 83.5326 19.9001 83.269 19.4297C83.0056 18.9591 83.0169 18.3814 83.2986 17.9218L92.8842 2.29158C93.1537 1.85231 93.6412 1.57953 94.1566 1.57953L105.659 1.57953C106.234 1.57953 106.764 1.9151 107.009 2.43453C107.254 2.95395 107.176 3.57597 106.811 4.01926L101.753 10.1552H109.174C109.704 10.1552 110.198 10.4396 110.464 10.8973C110.73 11.355 110.733 11.9251 110.47 12.3851L104.872 22.2022H109.174C109.735 22.2022 110.243 22.5119 110.5 23.0106C110.757 23.5093 110.715 24.1029 110.389 24.5596L91.777 50.6454C91.4975 51.0371 91.0432 51.2711 90.5616 51.2711L90.5617 51.2711Z" fill="#FF5B23"/>
<path d="M90.5618 50.5254C90.4504 50.5254 90.3378 50.5004 90.2321 50.4484C89.904 50.2867 89.7415 49.9111 89.8486 49.5615L95.864 29.9025H89.3639C89.0868 29.9025 88.8326 29.7491 88.7036 29.5041C88.5745 29.259 88.592 28.9627 88.7489 28.7345L95.1348 19.4467H84.5712C84.3012 19.4467 84.0521 19.3008 83.9201 19.0653C83.7883 18.8298 83.7939 18.5414 83.935 18.3114L93.5205 2.68125C93.6562 2.46004 93.897 2.32523 94.1567 2.32523L105.659 2.32523C105.948 2.32523 106.211 2.49171 106.334 2.75272C106.457 3.01374 106.419 3.32238 106.235 3.54509L100.171 10.901H109.174C109.44 10.901 109.685 11.0424 109.819 11.272C109.953 11.5018 109.954 11.7852 109.822 12.0159L103.588 22.948H109.174C109.453 22.948 109.709 23.104 109.837 23.3522C109.965 23.6004 109.944 23.8992 109.781 24.1266L91.1697 50.2125C91.0256 50.4144 90.7966 50.5254 90.5618 50.5254Z" fill="white"/>
<path d="M94.1567 3.07089L84.5713 18.701H96.5531L89.364 29.1568H96.8726L90.5622 49.7796L109.174 23.6936H102.304L109.174 11.6467L98.59 11.6467L105.659 3.07089L94.1567 3.07089Z" fill="#FF5B23"/>
</g>
<defs>
<clipPath id="clip0_1_3">
<rect width="30.7495" height="52.8507" fill="white"/>
</clipPath>
<clipPath id="clip1_1_3">
<rect width="30.7495" height="52.8507" fill="white" transform="translate(40.7495)"/>
</clipPath>
<clipPath id="clip2_1_3">
<rect width="30.7495" height="52.8507" fill="white" transform="translate(81.499)"/>
</clipPath>
</defs>
</svg>
