<svg width="211" height="217" viewBox="0 0 211 217" fill="none" xmlns="http://www.w3.org/2000/svg">
<path d="M82.4008 187.906C79.3588 187.077 76.8849 185.717 74.0203 184.587C69.8873 182.958 66.0088 181.468 63.0433 179.524C59.5375 177.227 57.7175 175.043 55.8442 172.382C52.0542 166.996 50.7373 159.926 53.1535 154.03C54.1655 151.562 56.2808 149.889 58.113 148.127C49.4336 131.983 52.2203 114.174 53.6177 108.556C52.9499 104.503 53.3261 100.432 53.9747 97.2534C54.8309 93.0584 57.7598 87.0116 63.5204 83.2715C66.6706 81.2262 70.3212 79.7748 73.9684 79.899C76.562 75.301 81.3282 72.833 85.8933 71.747C85.256 61.2044 85.3045 45.7592 92.2971 34.1091C95.8528 28.1847 102.362 23.8164 108.964 24.1395C110.197 24.1995 111.662 24.8744 112.82 25.1898C117.448 26.4505 120.04 29.5276 121.652 33.8135C123.482 38.6797 124.011 49.5316 123.099 66.3354C129.16 57.4393 134.441 48.663 141.678 43.4137C145.777 40.4405 153.047 40.2923 157.91 41.6167C159.819 42.1366 161.853 42.9956 163.398 44.148C165.705 45.8686 172.731 52.4241 168.095 66.1547C164.427 77.0162 153.283 93.836 147.604 102.029C152.108 107.996 154.66 114.936 154.82 122.649C155.051 133.797 146.182 149.713 134.703 160.697C133.654 161.7 132.66 163.116 131.593 163.995C133.115 167.296 133.429 170.638 132.496 174.605C131.109 180.497 126.411 186.459 120.726 189.018C116.844 190.765 113.201 191.215 110.574 191.434C107.087 191.725 102.316 191.562 98.1199 191.151C92.9159 190.641 87.3244 189.247 82.4008 187.906Z" fill="#FF5B23"/>
<path d="M120.986 164.851C120.744 164.662 120.285 164.746 120.022 164.589C123.126 162.762 125.942 160.684 128.174 158.515C138.187 148.786 146.896 131.473 146.76 122.12C146.646 114.231 143.806 107.878 138.294 102.206C139.918 99.9218 156.324 76.5663 160.66 63.7292C163.871 54.2253 159.941 49.9416 158.055 48.5156C154.581 45.8906 148.924 46.5188 145.301 49.1953C138.458 54.2518 132.957 62.8124 126.706 72.1184C123.251 77.2609 119.594 82.2411 115.89 86.7939C115.993 85.2372 115.292 83.5349 115.442 81.4915C116.805 62.8513 118.951 41.9301 116.894 36.2968C115.708 33.0506 112.01 30.981 108.14 30.8103C103.849 30.6202 100.097 33.3948 97.764 37.3162C89.8848 50.5581 91.5784 71.4061 92.3794 78.3342C92.1921 78.2958 91.6099 78.096 91.4153 78.0722C87.6873 77.6146 80.6535 78.9033 78.8148 85.0101C78.5708 85.8206 77.9923 86.7411 77.927 87.8772C77.4765 87.4559 76.6233 87.524 75.9987 87.3533C72.6069 86.4318 69.9725 87.18 67.1021 89.0807C63.3715 91.5509 60.6444 95.3809 59.9903 98.5459C59.3989 101.408 59.2417 105.319 59.9233 108.889C59.3579 110.779 52.8339 133.497 64.7717 150.615C64.9805 150.914 65.1891 151.517 65.4399 151.832C62.197 152.702 59.6004 154.868 58.2519 158.168C56.5391 162.36 57.164 167.529 59.5212 170.947C61.1503 173.309 64.002 174.355 66.3463 175.909C69.2661 177.845 72.8082 180.369 76.0637 181.658C83.1292 184.455 89.9252 185.745 97.5701 186.465C100.939 186.782 104.686 186.524 108.099 186.217C110.909 185.964 114.35 185.71 116.996 184.489C120.646 182.805 123.15 179.059 124.107 175.024C125.055 171.03 124.049 167.238 120.986 164.851ZM128.338 73.5979C134.455 64.4937 140.465 55.4544 146.934 50.6749C149.716 48.6186 153.512 49.0876 156.203 51.1208C159.333 53.4862 159.658 57.3481 157.768 62.9434C153.734 74.8848 138.943 97.4914 136.662 100.726C134.362 98.6543 131.274 96.0163 128.204 94.2839C123.154 91.4333 119.046 90.8474 115.671 90.8787C120.125 85.7742 124.293 79.6198 128.338 73.5979ZM91.7875 80.2456C91.5491 80.1808 92.0319 80.2755 91.7875 80.2456C93.8767 80.8132 96.473 82.6977 98.3167 86.1639C103.414 95.7465 106.065 112.966 104.864 119.026C104.323 121.759 103.216 123.21 101.161 124.237C98.0087 125.811 93.6601 124.872 91.8917 123.791C89.1016 122.086 85.4843 114.824 82.8331 105.788C82.4607 104.518 82.0987 103.633 81.7927 102.397C81.3263 100.433 81.6508 98.8548 81.3441 97.0945C81.2874 96.7684 80.7368 96.2823 80.676 95.8769C80.6283 95.5596 81.0271 95.2659 80.9719 94.9212C80.4245 90.958 80.1767 87.4151 80.743 85.5339C82.1714 80.7901 89.2089 79.9288 91.7875 80.2456ZM67.7703 90.2984C70.112 88.7477 72.5902 88.4995 75.4069 89.2648C77.1577 89.7438 78.0818 93.9111 78.4518 96.3087C78.8688 99.2297 79.1005 101.834 79.9408 105.002C80.2508 106.26 80.6634 107.141 80.9812 108.393C82.5801 114.688 84.7782 121.844 84.2551 124.824C83.9042 126.823 82.3505 128.297 80.8471 129.079C78.2579 130.426 74.5936 128.982 72.8383 127.939C68.8588 125.571 64.9132 116.964 63.1116 108.719C63.1535 108.413 62.5938 107.74 62.4434 107.501C61.7932 104.189 61.3952 101.603 61.9186 99.0697C62.4501 96.4981 64.651 92.3638 67.7703 90.2984ZM120.995 178.323C119.911 180.019 118.347 181.35 116.623 182.316C116.401 182.441 115.592 182.899 115.363 183.01C115.256 183.061 115.472 182.96 115.363 183.01C115.359 183.012 115.367 183.008 115.363 183.01C115.357 183.012 115.372 183.006 115.363 183.01C115.273 183.048 115.454 182.973 115.363 183.01C114.812 183.231 113.705 183.277 113.139 183.442C112.524 183.62 112.502 184.008 111.879 184.135C111.535 184.206 111.261 183.816 110.915 183.873C110.856 183.883 110.974 183.864 110.915 183.873C110.895 183.876 110.928 183.871 110.915 183.873C110.9 183.876 110.942 183.869 110.915 183.873C110.704 183.904 109.867 184.54 109.655 184.567C106.491 184.974 103.525 184.321 100.386 184.121C93.2491 183.666 86.3117 182.885 79.5479 180.532C76.3011 179.402 72.5354 177.423 69.5346 175.739C68.2119 174.997 67.1945 174.639 65.974 173.736C65.6914 173.527 65.5807 172.738 65.3059 172.518C64.9675 172.247 64.6911 172.564 64.3418 172.256C63.8531 171.827 63.1571 171.252 62.7095 170.777C62.2903 170.331 62.4099 170.051 62.0413 169.559C61.9491 169.436 62.1302 169.685 62.0413 169.559C62.0353 169.551 62.0459 169.566 62.0413 169.559C62.0359 169.551 62.0489 169.571 62.0413 169.559C62.0138 169.517 61.1046 169.339 61.0772 169.297C60.9029 169.029 61.5264 168.625 61.3731 168.341C60.4155 166.572 59.8665 164.878 59.9605 162.777C60.1271 159.053 62.3583 155.221 65.8121 154.006C66.4587 153.778 66.4557 153.361 67.0722 153.312C69.4847 155.842 73.5643 158.816 76.4937 160.016C76.4493 160.004 76.5372 160.034 76.4937 160.016C77.0754 160.174 77.491 159.932 77.7537 159.322C78.0365 158.666 77.9946 157.4 77.3815 157.149C73.7916 155.678 69.2584 152.047 67.2918 149.227C59.0125 137.355 60.3952 120.772 61.6319 113.498C63.9834 120.944 67.5829 130.471 71.3586 132.718C71.9915 133.095 72.3213 132.98 73.2869 133.242C75.6056 133.872 80.0174 131.839 82.4794 130.559C84.6729 129.418 85.9924 127.165 86.4792 124.393C86.6919 123.181 85.9749 121.864 85.7347 120.046C87.2433 122.777 89.702 124.726 91.2998 125.702C92.022 126.143 92.9101 127.176 93.8962 127.444C96.4657 128.142 98.8536 127.748 101.533 126.41C103.442 125.457 106.215 123.001 107.089 118.595C108.374 112.11 105.014 95.6919 99.5767 85.4701C98.5039 83.453 97.5542 80.5875 95.2717 79.12C93.8613 69.0478 92.8695 49.3063 99.6922 37.8401C101.521 34.7661 104.85 33.7903 108.217 33.9393C111.13 34.0675 113.519 35.3448 114.373 37.6843C116.42 43.2898 114.415 68.6398 113.514 80.9676C113.322 83.5864 113.762 85.6513 113.666 87.2258C113.557 89.0228 113.529 89.8717 113.742 90.3549C112.409 90.6959 110.938 91.5025 109.962 92.4362C106.244 95.9945 105.95 103.208 108.12 108.513C110.056 113.25 115.821 118.639 119.622 122C114.67 120.703 106.54 120.174 97.8289 131.621C97.3965 132.189 97.6828 133.381 98.2012 133.794C98.7193 134.208 99.0289 133.669 99.4612 133.1C110.176 119.02 118.997 124.108 122.591 125.915C123.714 126.479 125 126.287 125.779 125.745C126.204 125.449 126.086 125.338 126.075 124.789C126.058 123.924 124.946 123.063 122.142 120.612C118.503 117.431 112.607 111.936 110.64 107.126C108.852 102.752 108.495 97.5537 111.299 94.8715C113.995 92.2914 119.933 92.9833 127.316 97.151C138.645 103.544 144.379 111.653 144.536 122.552C144.66 131.098 136.211 146.973 126.838 156.08C120.415 162.32 113.75 166.044 108.233 165.531C107.566 165.469 107.077 165.525 106.973 166.225C106.879 166.854 107.082 167.29 107.641 167.442C107.574 167.436 107.704 167.459 107.641 167.442C111.146 167.768 114.349 167.476 117.502 165.977C120.556 167.095 122.667 170.113 122.475 173.545C122.375 175.327 121.996 176.758 120.995 178.323Z" fill="#FFFCF5"/>
</svg>
