<svg width="45" height="45" viewBox="0 0 45 45" fill="none" xmlns="http://www.w3.org/2000/svg">
<path d="M22.5 0.897461C19.5453 0.897461 16.6194 1.47944 13.8896 2.61017C11.1598 3.7409 8.67942 5.39824 6.5901 7.48756C2.37053 11.7071 0 17.4301 0 23.3975C0 33.3425 6.4575 41.78 15.39 44.7725C16.515 44.9525 16.875 44.255 16.875 43.6475V39.845C10.6425 41.195 9.315 36.83 9.315 36.83C8.28 34.22 6.8175 33.5225 6.8175 33.5225C4.77 32.1275 6.975 32.1725 6.975 32.1725C9.225 32.33 10.4175 34.49 10.4175 34.49C12.375 37.91 15.6825 36.8975 16.965 36.3575C17.1675 34.895 17.7525 33.905 18.3825 33.3425C13.3875 32.78 8.145 30.845 8.145 22.2725C8.145 19.775 9 17.7725 10.4625 16.175C10.2375 15.6125 9.45 13.2725 10.6875 10.235C10.6875 10.235 12.5775 9.62746 16.875 12.53C18.6525 12.035 20.5875 11.7875 22.5 11.7875C24.4125 11.7875 26.3475 12.035 28.125 12.53C32.4225 9.62746 34.3125 10.235 34.3125 10.235C35.55 13.2725 34.7625 15.6125 34.5375 16.175C36 17.7725 36.855 19.775 36.855 22.2725C36.855 30.8675 31.59 32.7575 26.5725 33.32C27.3825 34.0175 28.125 35.39 28.125 37.4825V43.6475C28.125 44.255 28.485 44.975 29.6325 44.7725C38.565 41.7575 45 33.3425 45 23.3975C45 20.4427 44.418 17.5169 43.2873 14.7871C42.1566 12.0573 40.4992 9.57688 38.4099 7.48756C36.3206 5.39824 33.8402 3.7409 31.1104 2.61017C28.3806 1.47944 25.4547 0.897461 22.5 0.897461Z" fill="#3A39FF"/>
</svg>
