<svg width="45" height="28" viewBox="0 0 45 28" fill="none" xmlns="http://www.w3.org/2000/svg">
<path d="M13.5 0.897461C17.0804 0.897461 20.5142 2.31978 23.0459 4.85152C25.5777 7.38326 27 10.817 27 14.3975C27 17.9779 25.5777 21.4117 23.0459 23.9434C20.5142 26.4751 17.0804 27.8975 13.5 27.8975C9.91958 27.8975 6.4858 26.4751 3.95406 23.9434C1.42232 21.4117 0 17.9779 0 14.3975C0 10.817 1.42232 7.38326 3.95406 4.85152C6.4858 2.31978 9.91958 0.897461 13.5 0.897461ZM33.75 3.14746C37.125 3.14746 39.375 8.18521 39.375 14.3975C39.375 20.6097 37.125 25.6475 33.75 25.6475C30.375 25.6475 28.125 20.6097 28.125 14.3975C28.125 8.18521 30.375 3.14746 33.75 3.14746ZM42.75 4.27246C43.605 4.27246 44.352 6.13321 44.73 9.32596L44.8358 10.3227L44.8785 10.8515L44.946 11.963L44.9685 12.5457L44.9955 13.763L45 14.3975L44.9955 15.032L44.9685 16.2492L44.946 16.8342L44.8785 17.9435L44.8335 18.4722L44.7323 19.469C44.352 22.664 43.6073 24.5225 42.75 24.5225C41.895 24.5225 41.148 22.6617 40.77 19.469L40.6642 18.4722C40.6488 18.2961 40.6345 18.1198 40.6215 17.9435L40.554 16.832C40.5453 16.6378 40.5378 16.4435 40.5315 16.2492L40.5045 15.032V13.763L40.5315 12.5457L40.554 11.9607L40.6215 10.8515L40.6665 10.3227L40.7677 9.32596C41.148 6.13096 41.8927 4.27246 42.75 4.27246Z" fill="#3A39FF"/>
</svg>
