<svg width="41" height="36" viewBox="0 0 41 36" fill="none" xmlns="http://www.w3.org/2000/svg">
<path fill-rule="evenodd" clip-rule="evenodd" d="M36.7264 1.13691C37.2301 0.92489 37.7815 0.851767 38.3231 0.925148C38.8647 0.998528 39.3767 1.21573 39.8058 1.55415C40.235 1.89256 40.5656 2.33982 40.7633 2.84937C40.9609 3.35891 41.0184 3.91212 40.9297 4.45141L36.3065 32.4943C35.858 35.1993 32.89 36.7505 30.4093 35.4031C28.3341 34.2759 25.252 32.5391 22.4797 30.7269C21.0936 29.8198 16.8475 26.9151 17.3693 24.8481C17.8178 23.0807 24.9523 16.4395 29.0292 12.491C30.6294 10.9398 29.8996 10.0449 28.01 11.4718C23.3175 15.0146 15.7834 20.4022 13.2925 21.9188C11.095 23.256 9.94941 23.4844 8.57957 23.256C6.08044 22.8402 3.76274 22.1961 1.87106 21.4113C-0.685145 20.3513 -0.5608 16.837 1.86902 15.8137L36.7264 1.13691Z" fill="#3A39FF"/>
</svg>
